<svg width="921" height="306" viewBox="0 0 921 306" fill="none" xmlns="http://www.w3.org/2000/svg">
  <rect x="34" y="34" width="238" height="238" rx="36" fill="#111111"/>
  <path d="M97 222V84h32v138H97Z" fill="#ffffff"/>
  <path d="M151 222V84h32v112h63v26h-95Z" fill="#ffffff"/>
  <path d="M302 222 358 84h35l56 138h-35l-11-29h-57l-11 29h-33Zm53-54h38l-19-51-19 51Z" fill="#111111"/>
  <path d="M479 222V112h-42V84h116v28h-42v110h-32Z" fill="#111111"/>
  <path d="M585 222V84h32v138h-32Z" fill="#111111"/>
  <path d="M653 222V84h32v57l54-57h40l-58 61 62 77h-41l-43-54-14 15v39h-32Z" fill="#111111"/>
  <path d="M790 222 846 84h35l56 138h-35l-11-29h-57l-11 29h-33Zm53-54h38l-19-51-19 51Z" fill="#111111"/>
</svg>
